<svg width="24" height="24" viewBox="0 0 24 24" fill="none" xmlns="http://www.w3.org/2000/svg">
<path d="M20.0632 13.1247V16.4997C20.0632 18.8556 19.2869 20.4372 19.2532 20.5009C19.2216 20.5693 19.1766 20.6307 19.1209 20.6814C19.0652 20.7321 18.9998 20.771 18.9288 20.796C18.8577 20.8209 18.7823 20.8314 18.7071 20.8266C18.6319 20.8219 18.5585 20.8021 18.4911 20.7685C18.4237 20.7348 18.3638 20.6879 18.3148 20.6307C18.2659 20.5734 18.2289 20.5069 18.2062 20.4351C18.1835 20.3632 18.1754 20.2876 18.1824 20.2126C18.1895 20.1376 18.2115 20.0648 18.2473 19.9984C18.2538 19.9853 18.9382 18.5744 18.9382 16.4997V13.1247C18.9382 12.7766 18.7999 12.4428 18.5538 12.1966C18.3076 11.9505 17.9738 11.8122 17.6257 11.8122C17.2776 11.8122 16.9438 11.9505 16.6976 12.1966C16.4515 12.4428 16.3132 12.7766 16.3132 13.1247V13.4997C16.3132 13.6489 16.2539 13.792 16.1484 13.8974C16.043 14.0029 15.8999 14.0622 15.7507 14.0622C15.6015 14.0622 15.4584 14.0029 15.3529 13.8974C15.2475 13.792 15.1882 13.6489 15.1882 13.4997V11.6247C15.1882 11.2766 15.0499 10.9428 14.8038 10.6966C14.5576 10.4505 14.2238 10.3122 13.8757 10.3122C13.5276 10.3122 13.1938 10.4505 12.9476 10.6966C12.7015 10.9428 12.5632 11.2766 12.5632 11.6247V12.7497C12.5632 12.8989 12.5039 13.042 12.3984 13.1474C12.293 13.2529 12.1499 13.3122 12.0007 13.3122C11.8515 13.3122 11.7084 13.2529 11.6029 13.1474C11.4975 13.042 11.4382 12.8989 11.4382 12.7497V6.3747C11.4382 6.0266 11.2999 5.69276 11.0538 5.44662C10.8076 5.20048 10.4738 5.0622 10.1257 5.0622C9.7776 5.0622 9.44376 5.20048 9.19761 5.44662C8.95147 5.69276 8.81319 6.0266 8.81319 6.3747V16.4997C8.81306 16.6218 8.77318 16.7406 8.69959 16.838C8.62601 16.9355 8.5227 17.0063 8.40529 17.0399C8.28787 17.0735 8.16273 17.0679 8.04875 17.0241C7.93477 16.9802 7.83816 16.9005 7.77351 16.7969L6.02226 13.9844C6.01861 13.9794 6.01547 13.9741 6.01288 13.9684C5.83883 13.667 5.55215 13.447 5.2159 13.3569C4.87966 13.2668 4.52139 13.3139 4.21991 13.488C3.91843 13.662 3.69845 13.9487 3.60834 14.285C3.51824 14.6212 3.56539 14.9795 3.73944 15.2809L6.48538 19.9684C6.54823 20.0964 6.56017 20.2434 6.51879 20.3798C6.4774 20.5162 6.38577 20.6318 6.26243 20.7032C6.13908 20.7747 5.99321 20.7966 5.85431 20.7646C5.7154 20.7327 5.59382 20.6491 5.51413 20.5309L2.76538 15.8434C2.44053 15.284 2.35122 14.6184 2.51711 13.9931C2.68299 13.3679 3.09047 12.8341 3.64991 12.5092C4.20935 12.1844 4.87493 12.0951 5.50021 12.261C6.1255 12.4268 6.65928 12.8343 6.98413 13.3938L7.68819 14.5309V6.3747C7.68819 5.72823 7.945 5.10824 8.40212 4.65112C8.85924 4.194 9.47923 3.9372 10.1257 3.9372C10.7722 3.9372 11.3921 4.194 11.8493 4.65112C12.3064 5.10824 12.5632 5.72823 12.5632 6.3747V9.57157C12.8944 9.35969 13.2719 9.23108 13.6636 9.19671C14.0553 9.16233 14.4495 9.22322 14.8125 9.37417C15.1756 9.52511 15.4967 9.76165 15.7486 10.0636C16.0004 10.3655 16.1755 10.7239 16.2588 11.1081C16.6252 10.86 17.0523 10.7162 17.4942 10.6924C17.9362 10.6685 18.3762 10.7654 18.7673 10.9727C19.1583 11.1799 19.4855 11.4897 19.7138 11.8689C19.9421 12.248 20.0629 12.6821 20.0632 13.1247ZM23.2507 4.6872H17.8582L19.8982 2.6472C20.0022 2.54136 20.0602 2.39871 20.0595 2.25031C20.0588 2.10192 19.9995 1.95982 19.8945 1.85495C19.7895 1.75008 19.6473 1.69095 19.4989 1.69043C19.3506 1.68992 19.208 1.74806 19.1023 1.8522L16.1023 4.8522C15.9969 4.95767 15.9377 5.10063 15.9377 5.2497C15.9377 5.39876 15.9969 5.54173 16.1023 5.6472L19.1023 8.6472C19.208 8.75133 19.3506 8.80948 19.4989 8.80896C19.6473 8.80845 19.7895 8.74931 19.8945 8.64445C19.9995 8.53958 20.0588 8.39747 20.0595 8.24908C20.0602 8.10069 20.0022 7.95804 19.8982 7.8522L17.8582 5.8122H23.2507C23.3999 5.8122 23.543 5.75293 23.6484 5.64744C23.7539 5.54196 23.8132 5.39888 23.8132 5.2497C23.8132 5.10051 23.7539 4.95744 23.6484 4.85195C23.543 4.74646 23.3999 4.6872 23.2507 4.6872Z" fill="#F3F4F5"/>
</svg>
