<svg width="1900" height="960" viewBox="0 0 1900 960" fill="none" xmlns="http://www.w3.org/2000/svg">
<g style="mix-blend-mode:overlay" opacity="0.3">
<path d="M1899.47 14.0564V0H1885.4V11.4175H1871.89C1869.9 8.10363 1868.23 4.5843 1866.94 0.886612L1866.64 0H32.8313L32.5212 0.886612C31.234 4.5843 29.5635 8.10363 27.5799 11.4175H14.0692V0H0V14.0564H11.4278V28.8472C8.12874 31.1764 4.57594 33.1749 0.80494 34.776L0 35.115V506.577H2.64137V36.8549C5.73167 35.4874 8.6424 33.8143 11.4278 31.9723V506.576H14.0692V30.1437C20.0013 25.743 25.0857 20.2961 29.0384 14.0564H1870.43C1874.38 20.2961 1879.47 25.743 1885.4 30.1437V506.577H1888.04V31.9702C1890.82 33.8143 1893.73 35.4874 1896.82 36.8549V506.576H1899.47V35.115L1898.66 34.775C1894.89 33.1739 1891.34 31.1754 1888.04 28.8462V14.0554L1899.47 14.0564ZM1888.04 2.63897H1896.82V11.4175H1888.04V2.63897ZM2.64137 11.4175V2.63897H11.4278V11.4175H2.64137ZM14.0692 26.7809V14.0564H25.828C22.5717 18.8702 18.6128 23.1572 14.0692 26.7809ZM30.5689 11.4175C32.1537 8.60952 33.5788 5.70143 34.7011 2.63897H1864.77C1865.89 5.70143 1867.31 8.60952 1868.9 11.4175H30.5689ZM1885.4 26.7809C1880.85 23.1572 1876.89 18.8713 1873.64 14.0564H1885.4V26.7809Z" fill="white"/>
<path d="M1899.47 945.953V960H1885.4V948.591H1871.89C1869.9 951.902 1868.23 955.419 1866.94 959.114L1866.64 960H32.8313L32.5212 959.114C31.234 955.419 29.5635 951.902 27.5799 948.591H14.0692V960H0V945.953H11.4278V931.173C8.12874 928.846 4.57594 926.849 0.80494 925.249L0 924.91V506.577H2.64137V923.171C5.73167 924.538 8.6424 926.21 11.4278 928.05V506.576H14.0692V929.878C20.0013 934.275 25.0857 939.718 29.0384 945.953H1870.43C1874.38 939.718 1879.47 934.275 1885.4 929.878V506.577H1888.04V928.052C1890.82 926.21 1893.73 924.538 1896.82 923.171V506.576H1899.47V924.91L1898.66 925.25C1894.89 926.85 1891.34 928.847 1888.04 931.174V945.955L1899.47 945.953ZM1888.04 957.363H1896.82V948.591H1888.04V957.363ZM2.64137 948.591V957.363H11.4278V948.591H2.64137ZM14.0692 933.238V945.953H25.828C22.5717 941.143 18.6128 936.859 14.0692 933.238ZM30.5689 948.591C32.1537 951.397 33.5788 954.303 34.7011 957.363H1864.77C1865.89 954.303 1867.31 951.397 1868.9 948.591H30.5689ZM1885.4 933.238C1880.85 936.859 1876.89 941.142 1873.64 945.953H1885.4V933.238Z" fill="white"/>
</g>
</svg>
