<?xml version="1.0" encoding="utf-8"?>
<!-- Generator: Adobe Illustrator 28.5.0, SVG Export Plug-In . SVG Version: 9.03 Build 54727)  -->
<svg version="1.0" id="Layer_1" xmlns="http://www.w3.org/2000/svg" xmlns:xlink="http://www.w3.org/1999/xlink" x="0px" y="0px"
	 viewBox="0 0 120 50" enable-background="new 0 0 120 50" xml:space="preserve">
<g>
	<path fill="#0081C6" d="M117.946,21.094c0,11.649-9.441,21.089-21.094,21.089c-6.322,0-11.989-2.791-15.856-7.203h4.305v-9.385
		c1.396,0.111,3.076,0.145,4.603,0.025l4.914,9.36h9.151l-6.492-10.619l0.549-0.323c2.94-1.744,4.629-4.561,4.629-7.735
		c0-5.948-4.642-8.837-14.206-8.837c-1.995,0-5.254,0.183-8.037,0.425C84.28,3.08,90.207,0,96.852,0
		C108.505,0,117.946,9.436,117.946,21.094z M93.899,16.201c0-2.876-2.11-4.722-5.378-4.722c-1.825,0-3.221,0.315-3.221,0.315V21.4
		c0,0,1.025,0.179,2.757,0.179C91.713,21.579,93.899,19.571,93.899,16.201z"/>
	<path fill="#404041" d="M20.106,34.98l-9.611-13.146V34.98H2.054V7.786h8.441v12.151l9.147-12.151h9.73L18.434,20.719L29.87,34.98
		H20.106z"/>
	<path fill="#404041" d="M68.262,34.98V18.235c0-2.816-1.204-4.246-3.587-4.246c-1.944,0-3.812,1.119-6.05,3.625l-0.162,0.183V34.98
		h-8.5V18.303c0-2.825-1.213-4.246-3.587-4.246c-1.885,0-3.752,1.115-6.041,3.616l-0.174,0.179V34.98h-8.5V7.786h8.241v6.097
		L41,12.695c3.599-3.855,6.394-5.437,9.641-5.437c3.842,0,6.148,1.655,7.267,5.199l0.323,1.038l0.745-0.8
		c3.497-3.753,6.671-5.505,9.968-5.505c4.973,0,7.824,3.191,7.824,8.751V34.98H68.262z"/>
	<g>
		<path fill="#404041" d="M3.888,41.348v8.513H2.335v-8.513H3.888z"/>
		<path fill="#404041" d="M8.114,48.169c0.492,0.29,1.263,0.543,2.059,0.543c0.985,0,1.541-0.467,1.541-1.162
			c0-0.645-0.429-1.023-1.503-1.415c-1.415-0.505-2.311-1.251-2.311-2.476c0-1.402,1.162-2.451,3.019-2.451
			c0.922,0,1.592,0.202,2.034,0.43l-0.366,1.25c-0.315-0.164-0.909-0.404-1.705-0.404c-0.985,0-1.402,0.518-1.402,1.023
			c0,0.657,0.492,0.96,1.629,1.402c1.478,0.556,2.185,1.301,2.185,2.526c0,1.377-1.035,2.564-3.221,2.564
			c-0.909,0-1.844-0.253-2.311-0.543L8.114,48.169z"/>
		<path fill="#404041" d="M24.717,45.516c0,2.855-1.731,4.484-4.067,4.484c-2.412,0-3.928-1.844-3.928-4.332
			c0-2.627,1.654-4.471,4.055-4.471C23.252,41.197,24.717,43.079,24.717,45.516z M18.364,45.63c0,1.743,0.872,3.12,2.362,3.12
			c1.503,0,2.349-1.402,2.349-3.183c0-1.604-0.796-3.12-2.349-3.12C19.185,42.447,18.364,43.874,18.364,45.63z"/>
		<path fill="#404041" d="M36.847,49.861v-2.084h-3.726v-1.01l3.36-5.115h1.831v4.951h1.061v1.175h-1.061v2.084H36.847z
			 M36.847,46.602v-2.235c0-0.467,0.025-0.935,0.05-1.427h-0.05c-0.253,0.518-0.467,0.934-0.72,1.39l-1.516,2.248v0.025H36.847z"/>
		<path fill="#404041" d="M47.774,42.94h-3.158l-0.24,1.642c0.177-0.025,0.341-0.038,0.581-0.038c0.72,0,1.452,0.164,1.995,0.531
			c0.619,0.391,1.074,1.086,1.074,2.084c0,1.566-1.301,2.841-3.309,2.841c-0.96,0-1.755-0.24-2.185-0.48l0.315-1.175
			c0.354,0.189,1.061,0.43,1.807,0.43c0.909,0,1.78-0.518,1.78-1.491c0-0.947-0.695-1.566-2.324-1.566
			c-0.467,0-0.808,0.038-1.124,0.076l0.531-4.143h4.257V42.94z"/>
		<path fill="#404041" d="M57.541,45.693c0,2.653-1.036,4.307-3.006,4.307c-1.882,0-2.892-1.718-2.905-4.218
			c0-2.564,1.086-4.269,3.006-4.269C56.619,41.512,57.541,43.281,57.541,45.693z M53.196,45.769c0,2.008,0.544,3.044,1.39,3.044
			c0.921,0,1.389-1.111,1.389-3.082c0-1.907-0.442-3.031-1.377-3.031C53.778,42.7,53.196,43.723,53.196,45.769z"/>
		<path fill="#404041" d="M67.018,45.693c0,2.653-1.036,4.307-3.006,4.307c-1.882,0-2.892-1.718-2.905-4.218
			c0-2.564,1.086-4.269,3.006-4.269C66.096,41.512,67.018,43.281,67.018,45.693z M62.673,45.769c0,2.008,0.544,3.044,1.39,3.044
			c0.921,0,1.389-1.111,1.389-3.082c0-1.907-0.442-3.031-1.377-3.031C63.255,42.7,62.673,43.723,62.673,45.769z"/>
		<path fill="#404041" d="M72.419,43.054h-0.026l-1.503,0.758l-0.266-1.175l2.008-0.985h1.289v8.21h-1.503V43.054z"/>
	</g>
</g>
</svg>
