<?xml version="1.0" encoding="utf-8"?>
<!-- Generator: Adobe Illustrator 28.5.0, SVG Export Plug-In . SVG Version: 9.03 Build 54727)  -->
<svg version="1.0" id="Layer_1" xmlns="http://www.w3.org/2000/svg" xmlns:xlink="http://www.w3.org/1999/xlink" x="0px" y="0px"
	 viewBox="0 0 120 50" enable-background="new 0 0 120 50" xml:space="preserve">
<g>
	<g>
		<path fill="#404041" d="M3.763,41.305v8.556H2.202v-8.556H3.763z"/>
		<path fill="#404041" d="M8.321,48.159c0.507,0.293,1.269,0.546,2.069,0.546c1.003,0,1.561-0.469,1.561-1.168
			c0-0.647-0.432-1.028-1.523-1.421c-1.41-0.507-2.311-1.256-2.311-2.488c0-1.395,1.168-2.462,3.021-2.462
			c0.927,0,1.612,0.203,2.057,0.432l-0.381,1.257c-0.305-0.166-0.901-0.407-1.7-0.407c-0.991,0-1.423,0.533-1.423,1.029
			c0,0.66,0.496,0.965,1.638,1.408c1.485,0.559,2.209,1.308,2.209,2.539c0,1.372-1.041,2.564-3.25,2.564
			c-0.901,0-1.841-0.253-2.311-0.532L8.321,48.159z"/>
		<path fill="#404041" d="M25.343,45.493c0,2.869-1.738,4.507-4.1,4.507c-2.411,0-3.935-1.841-3.935-4.354
			c0-2.628,1.651-4.481,4.062-4.481C23.871,41.165,25.343,43.057,25.343,45.493z M18.959,45.621c0,1.738,0.876,3.122,2.373,3.122
			c1.511,0,2.362-1.395,2.362-3.186c0-1.612-0.799-3.136-2.362-3.136C19.784,42.421,18.959,43.857,18.959,45.621z"/>
		<path fill="#404041" d="M34.303,43.018h-0.025l-1.511,0.762l-0.266-1.18l2.006-0.99h1.308v8.251h-1.511V43.018z"/>
		<path fill="#404041" d="M44.903,49.861v-2.094H41.17V46.75l3.363-5.14h1.841v4.976h1.065v1.18h-1.065v2.094H44.903z
			 M44.903,46.586v-2.247c0-0.471,0.012-0.953,0.051-1.436h-0.051c-0.254,0.52-0.471,0.94-0.724,1.398l-1.511,2.259l-0.012,0.026
			H44.903z"/>
		<path fill="#404041" d="M56.897,45.685c0,2.653-1.042,4.315-3.008,4.315c-1.905,0-2.92-1.727-2.933-4.239
			c0-2.564,1.091-4.29,3.021-4.29C55.97,41.47,56.897,43.247,56.897,45.685z M52.53,45.761c-0.013,2.006,0.546,3.046,1.41,3.046
			c0.913,0,1.395-1.116,1.395-3.097c0-1.917-0.457-3.047-1.395-3.047C53.101,42.662,52.517,43.691,52.53,45.761z"/>
		<path fill="#404041" d="M66.506,45.685c0,2.653-1.042,4.315-3.008,4.315c-1.905,0-2.92-1.727-2.933-4.239
			c0-2.564,1.092-4.29,3.021-4.29C65.579,41.47,66.506,43.247,66.506,45.685z M62.139,45.761c-0.013,2.006,0.546,3.046,1.41,3.046
			c0.913,0,1.395-1.116,1.395-3.097c0-1.917-0.456-3.047-1.395-3.047C62.71,42.662,62.126,43.691,62.139,45.761z"/>
		<path fill="#404041" d="M72.737,43.018h-0.025l-1.511,0.762l-0.266-1.18l2.006-0.99h1.308v8.251h-1.511V43.018z"/>
	</g>
	<g>
		<path fill="#73C166" d="M117.982,21.107c0,11.655-9.447,21.102-21.108,21.102c-6.325,0-11.996-2.792-15.865-7.208h4.307V25.61
			c1.398,0.111,3.079,0.145,4.607,0.026l4.917,9.366h9.158l-6.497-10.626l0.549-0.323c2.942-1.745,4.632-4.563,4.632-7.739
			c0-5.952-4.644-8.842-14.215-8.842c-1.996,0-5.258,0.183-8.041,0.426C84.294,3.082,90.226,0,96.874,0
			C108.535,0,117.982,9.442,117.982,21.107z M93.92,16.211c0-2.878-2.112-4.725-5.38-4.725c-1.826,0-3.224,0.315-3.224,0.315v9.612
			c0,0,1.026,0.179,2.76,0.179C91.732,21.592,93.92,19.583,93.92,16.211z"/>
		<path fill="#404041" d="M20.08,35.002l-9.616-13.154v13.154H2.018V7.791h8.446v12.158l9.153-12.158h9.736L18.408,20.732
			l11.442,14.27H20.08z"/>
		<path fill="#404041" d="M68.266,35.002V18.246c0-2.818-1.204-4.248-3.588-4.248c-1.946,0-3.815,1.119-6.055,3.627l-0.161,0.183
			v17.194h-8.506V18.315c0-2.827-1.213-4.249-3.589-4.249c-1.885,0-3.755,1.115-6.045,3.619l-0.175,0.178v17.139h-8.505V7.791h8.246
			v6.101l1.099-1.188c3.602-3.857,6.398-5.441,9.647-5.441c3.843,0,6.151,1.656,7.27,5.203l0.324,1.039l0.745-0.801
			c3.499-3.755,6.674-5.509,9.973-5.509c4.977,0,7.83,3.193,7.83,8.757v19.05H68.266z"/>
	</g>
</g>
</svg>
