<svg width="41" height="42" viewBox="0 0 41 42" fill="none" xmlns="http://www.w3.org/2000/svg">
<path d="M20.404 24.0133L20.5014 24.0964L20.5987 24.0133L20.9836 23.6848L20.9836 23.6848C21.1723 23.5236 23.4647 21.5524 25.7111 18.9747C26.8342 17.686 27.949 16.242 28.7837 14.7941C29.6168 13.349 30.1801 11.8845 30.1801 10.5582C30.1801 5.22065 25.8388 0.879297 20.5014 0.879297C15.1639 0.879297 10.8227 5.22065 10.8227 10.5582C10.8227 11.8845 11.3859 13.349 12.219 14.7941C13.0537 16.242 14.1685 17.686 15.2916 18.9747C17.538 21.5524 19.8304 23.5236 20.0191 23.6848L20.0191 23.6848L20.404 24.0133ZM16.581 18.187L16.581 18.187C15.1756 16.5986 14.1055 15.1427 13.3874 13.855C12.668 12.565 12.3089 11.456 12.3089 10.5582C12.3089 6.04033 15.9846 2.36558 20.5014 2.36558C25.0191 2.36558 28.6938 6.04032 28.6918 10.5581V10.5582C28.6918 11.456 28.3329 12.565 27.6138 13.855C26.896 15.1427 25.8261 16.5986 24.4207 18.187L24.4207 18.187C22.8558 19.9566 21.2722 21.4328 20.5004 22.1275C19.7287 21.4328 18.1459 19.9566 16.581 18.187Z" fill="#333333" stroke="#333333" stroke-width="0.3"/>
<path d="M20.5986 18.2979L20.5012 18.215L20.404 18.298L20.0192 18.6264C19.8299 18.7877 17.5375 20.7589 15.2912 23.3365C14.1682 24.6252 13.0535 26.069 12.2188 27.5168C11.3858 28.9618 10.8227 30.4261 10.8227 31.7521C10.8227 37.0896 15.1639 41.432 20.5014 41.432C25.8388 41.432 30.181 37.0897 30.181 31.7521C30.181 30.4261 29.6178 28.9618 28.7847 27.5168C27.95 26.069 26.8352 24.6252 25.7121 23.3365C23.4657 20.7589 21.1733 18.7877 20.9846 18.6265L20.9844 18.6264L20.5986 18.2979ZM24.4138 24.1155L24.4139 24.1155C25.8222 25.7058 26.8946 27.1635 27.6141 28.4526C28.335 29.7442 28.6948 30.8544 28.6948 31.7531C28.6948 36.271 25.0191 39.9457 20.5023 39.9457C15.9856 39.9457 12.3099 36.27 12.3099 31.7531C12.3099 30.8559 12.669 29.7471 13.3884 28.457C14.1065 27.1694 15.1766 25.7132 16.582 24.1244C18.147 22.3555 19.7299 20.8784 20.5023 20.1838C21.2718 20.8764 22.849 22.3478 24.4138 24.1155Z" fill="#333333" stroke="#333333" stroke-width="0.3"/>
<path d="M17.9732 21.6381L17.9732 21.6382C18.1344 21.8268 20.1055 24.119 22.6832 26.3652C23.9719 27.4882 25.4158 28.6029 26.8638 29.4376C28.3088 30.2706 29.7733 30.8337 31.0996 30.8337C36.437 30.8337 40.7783 26.4924 40.7783 21.1549C40.7783 15.8174 36.437 11.475 31.0996 11.475C29.7733 11.475 28.3088 12.0382 26.8638 12.8713C25.4158 13.7061 23.9719 14.8209 22.6832 15.944C20.1055 18.1905 18.1344 20.4829 17.9732 20.6716L17.9732 20.6716L17.6437 21.0575L17.5606 21.1549L17.6437 21.2523L17.9732 21.6381ZM23.4709 25.0753C21.7023 23.5103 20.2262 21.9276 19.5305 21.1558C20.224 20.3853 21.6944 18.8081 23.4611 17.2433C25.0519 15.8349 26.5098 14.7625 27.799 14.043C29.0906 13.3221 30.2009 12.9623 31.0996 12.9623C35.6164 12.9623 39.292 16.637 39.292 21.1549C39.292 25.6727 35.6164 29.3475 31.0996 29.3475C30.2018 29.3475 29.0928 28.9884 27.8028 28.269C26.5152 27.5509 25.0593 26.4807 23.4709 25.0753Z" fill="#333333" stroke="#333333" stroke-width="0.3"/>
<path d="M23.0301 20.6716L23.0301 20.6716C22.8689 20.4829 20.8977 18.1905 18.3201 15.944C17.0314 14.8209 15.5875 13.7061 14.1395 12.8713C12.6944 12.0382 11.23 11.475 9.9037 11.475C4.56625 11.475 0.225 15.8174 0.225 21.1549C0.225 26.4924 4.56627 30.8337 9.9037 30.8337C11.2297 30.8337 12.6941 30.2706 14.1391 29.4376C15.587 28.6029 17.0309 27.4882 18.3197 26.3652C20.8975 24.119 22.8689 21.8269 23.0301 21.6382L23.0301 21.6381L23.3595 21.2523L23.4427 21.1549L23.3595 21.0575L23.0301 20.6716ZM17.5323 17.2364L17.6317 17.1241L17.5323 17.2364C19.301 18.8014 20.778 20.3851 21.4728 21.1568C20.778 21.9285 19.3011 23.5113 17.5324 25.0763C15.9435 26.4812 14.4876 27.5514 13.2001 28.2696C11.9102 28.9891 10.8014 29.3485 9.9037 29.3485C5.38692 29.3485 1.71126 25.6737 1.71126 21.1559C1.71126 16.638 5.38692 12.9633 9.9037 12.9633C10.801 12.9633 11.9097 13.3224 13.1997 14.0419C14.4874 14.7601 15.9435 15.8305 17.5323 17.2364Z" fill="#333333" stroke="#333333" stroke-width="0.3"/>
<path d="M4.68203 7.82077C4.68203 9.29265 5.87997 10.4918 7.35198 10.4918C8.82399 10.4918 10.0219 9.29265 10.0219 7.82077C10.0219 6.34886 8.82494 5.15078 7.35198 5.15078C5.88005 5.15078 4.68203 6.34882 4.68203 7.82077ZM6.1683 7.82077C6.1683 7.16758 6.69964 6.63707 7.35198 6.63707C8.00431 6.63707 8.53566 7.16758 8.53566 7.82077C8.53566 8.47405 8.00523 9.00448 7.35198 9.00448C6.69873 9.00448 6.1683 8.47405 6.1683 7.82077Z" fill="#333333" stroke="#333333" stroke-width="0.3"/>
<path d="M31.1664 7.82077C31.1664 9.29261 32.3633 10.4918 33.8364 10.4918C35.3084 10.4918 36.5063 9.29265 36.5063 7.82077C36.5063 6.34882 35.3083 5.15078 33.8364 5.15078C32.3644 5.15078 31.1664 6.34882 31.1664 7.82077ZM32.6527 7.82077C32.6527 7.16758 33.184 6.63707 33.8364 6.63707C34.4887 6.63707 35.02 7.16758 35.02 7.82077C35.02 8.47397 34.4887 9.00448 33.8364 9.00448C33.184 9.00448 32.6527 8.47397 32.6527 7.82077Z" fill="#333333" stroke="#333333" stroke-width="0.3"/>
<path d="M4.68203 34.4887C4.68203 35.9616 5.88001 37.1597 7.35198 37.1597C8.82395 37.1597 10.0219 35.9616 10.0219 34.4887C10.0219 33.0168 8.82494 31.8187 7.35198 31.8187C5.88005 31.8187 4.68203 33.0168 4.68203 34.4887ZM6.1683 34.4887C6.1683 33.8355 6.69964 33.305 7.35198 33.305C8.00424 33.305 8.53566 33.8365 8.53566 34.4887C8.53566 35.142 8.00523 35.6724 7.35198 35.6724C6.69873 35.6724 6.1683 35.142 6.1683 34.4887Z" fill="#333333" stroke="#333333" stroke-width="0.3"/>
<path d="M31.1664 34.4887C31.1664 35.9616 32.3634 37.1597 33.8364 37.1597C35.3083 37.1597 36.5063 35.9616 36.5063 34.4887C36.5063 33.0168 35.3083 31.8187 33.8364 31.8187C32.3644 31.8187 31.1664 33.0168 31.1664 34.4887ZM32.6527 34.4887C32.6527 33.8355 33.184 33.305 33.8364 33.305C34.4884 33.305 35.0191 33.8362 35.02 34.4888C35.02 35.142 34.4887 35.6724 33.8364 35.6724C33.184 35.6724 32.6527 35.1419 32.6527 34.4887Z" fill="#333333" stroke="#333333" stroke-width="0.3"/>
</svg>
