<svg width="1819" height="99" viewBox="0 0 1819 99" fill="none" xmlns="http://www.w3.org/2000/svg">
<g clip-path="url(#clip0_1911_3256)">
<path d="M58.0284 48.7344L56.0039 47.787C61.6827 35.6895 73.9963 27.877 87.3755 27.877C100.749 27.877 113.064 35.6857 118.735 47.773L116.71 48.7147C111.401 37.413 99.885 30.1074 87.3746 30.1074C74.8595 30.1074 63.3435 37.4215 58.0284 48.7344Z" fill="#272727"/>
<path d="M65.1623 53.2996L63.0938 52.4561C67.1633 42.5983 76.6923 36.2344 87.3741 36.2344C97.9444 36.2344 107.436 42.5057 111.553 52.2223L109.495 53.0958C105.728 44.2096 97.0437 38.4648 87.3741 38.4648C77.6005 38.4648 68.8869 44.2891 65.1623 53.2996Z" fill="#272727"/>
<path d="M72.0605 59.274L69.8711 58.8261C71.5638 50.5796 78.923 44.5879 87.377 44.5879C95.7832 44.5879 103.139 50.5366 104.865 58.7344L102.676 59.1983C101.164 52.0292 94.7288 46.8183 87.377 46.8183C79.9821 46.8192 73.5423 52.0553 72.0605 59.274Z" fill="#272727"/>
<path d="M33.7788 41.5634L31.6953 40.7498C40.7098 17.7003 62.5655 2.80469 87.3754 2.80469C112.181 2.80469 134.034 17.7003 143.054 40.7442L140.971 41.5578C132.286 19.3724 111.25 5.03604 87.3754 5.03604C63.4934 5.03697 42.4587 19.3734 33.7788 41.5634Z" fill="#272727"/>
<path d="M132.424 42.8141C124.604 24.9399 106.923 13.3867 87.376 13.3867C67.825 13.3867 50.1428 24.9399 42.3243 42.8141L40.2773 41.9164C48.4511 23.2342 66.9365 11.1562 87.376 11.1562C107.811 11.1562 126.299 23.2342 134.476 41.9164L132.424 42.8141Z" fill="#272727"/>
<path d="M124.332 45.2296C117.654 30.9671 103.151 21.7527 87.3768 21.7527C71.6066 21.7527 57.1017 30.9671 50.4248 45.2296L48.3984 44.2888C55.44 29.2398 70.7415 19.5176 87.3768 19.5176C104.013 19.5176 119.314 29.2398 126.357 44.2888L124.332 45.2296Z" fill="#272727"/>
<path d="M63.368 99.5128H61.1271C61.1271 81.7022 46.6034 67.2012 28.7489 67.2012C10.8924 67.2012 -3.63685 81.7022 -3.63685 99.5128H-5.875C-5.875 80.4696 9.65615 64.9727 28.7489 64.9727C47.8378 64.9736 63.368 80.4696 63.368 99.5128Z" fill="#272727"/>
<path d="M54.9891 99.5134H52.7537C52.7537 86.3076 41.9857 75.5586 28.7508 75.5586C15.514 75.5586 4.74315 86.3076 4.74315 99.5134H2.50781C2.50781 85.0751 14.2806 73.3301 28.7508 73.3301C43.2182 73.3301 54.9891 85.0751 54.9891 99.5134Z" fill="#272727"/>
<path d="M46.6151 99.513H44.377C44.377 90.9158 37.3663 83.9216 28.7474 83.9216C20.1238 83.9216 13.116 90.9158 13.116 99.513H10.875C10.875 89.6842 18.8913 81.6855 28.7474 81.6855C38.5998 81.6865 46.6151 89.6842 46.6151 99.513Z" fill="#272727"/>
<path d="M88.4936 99.513H86.2564C86.2564 67.8757 60.4568 42.1347 28.7496 42.1347C-2.96219 42.1347 -28.7609 67.8757 -28.7609 99.513H-31C-31 66.6412 -4.19749 39.9043 28.7487 39.9043C61.6921 39.9043 88.4936 66.6412 88.4936 99.513Z" fill="#272727"/>
<path d="M80.12 99.5141H77.8818C77.8818 72.4779 55.8387 50.488 28.7484 50.488C1.6535 50.488 -20.3878 72.4779 -20.3878 99.5141H-22.625C-22.625 71.25 0.418208 48.252 28.7484 48.252C57.074 48.252 80.12 71.251 80.12 99.5141Z" fill="#272727"/>
<path d="M71.7445 99.513H69.5044C69.5044 77.0882 51.2206 58.8456 28.75 58.8456C6.27388 58.8456 -12.009 77.0892 -12.009 99.513H-14.25C-14.25 75.8613 5.04046 56.6133 28.75 56.6133C52.4549 56.6133 71.7445 75.8613 71.7445 99.513Z" fill="#272727"/>
<path d="M180.623 99.5128H178.385C178.385 81.7022 163.858 67.2012 146 67.2012C128.144 67.2012 113.618 81.7022 113.618 99.5128H111.383C111.383 80.4696 126.911 64.9727 146.001 64.9727C165.092 64.9736 180.623 80.4696 180.623 99.5128Z" fill="#272727"/>
<path d="M172.247 99.5134H170.008C170.008 86.3076 159.239 75.5586 146.001 75.5586C132.764 75.5586 121.993 86.3076 121.993 99.5134H119.758C119.758 85.0751 131.531 73.3301 146.001 73.3301C160.472 73.3301 172.247 85.0751 172.247 99.5134Z" fill="#272727"/>
<path d="M163.873 99.513H161.635C161.635 90.9158 154.621 83.9216 146.003 83.9216C137.385 83.9216 130.372 90.9158 130.372 99.513H128.137C128.137 89.6842 136.15 81.6855 146.003 81.6855C155.858 81.6865 163.873 89.6842 163.873 99.513Z" fill="#272727"/>
<path d="M205.748 99.513H203.512C203.512 67.8757 177.711 42.1347 146 42.1347C114.291 42.1347 88.4921 67.8757 88.4921 99.513H86.2539C86.2539 66.6412 113.056 39.9043 146.001 39.9043C178.945 39.9043 205.748 66.6412 205.748 99.513Z" fill="#272727"/>
<path d="M197.373 99.5141H195.138C195.138 72.4779 173.093 50.488 146.002 50.488C118.909 50.488 96.8691 72.4779 96.8691 99.5141H94.6328C94.6328 71.25 117.678 48.252 146.002 48.252C174.329 48.252 197.373 71.251 197.373 99.5141Z" fill="#272727"/>
<path d="M188.999 99.513H186.763C186.763 77.0882 168.476 58.8456 146.002 58.8456C123.529 58.8456 105.246 77.0892 105.246 99.513H103.008C103.008 75.8613 122.298 56.6133 146.002 56.6133C169.711 56.6133 188.999 75.8613 188.999 99.513Z" fill="#272727"/>
<path d="M175.915 48.7344L173.887 47.787C179.559 35.6895 191.874 27.877 205.256 27.877C218.633 27.877 230.94 35.6857 236.621 47.773L234.595 48.7147C229.283 37.413 217.77 30.1074 205.256 30.1074C192.738 30.1074 181.219 37.4215 175.915 48.7344Z" fill="#272727"/>
<path d="M183.053 53.2996L180.984 52.4561C185.045 42.5983 194.578 36.2344 205.259 36.2344C215.835 36.2344 225.327 42.5057 229.437 52.2279L227.379 53.0902C223.615 44.2096 214.934 38.4648 205.259 38.4648C195.488 38.4648 186.77 44.2891 183.053 53.2996Z" fill="#272727"/>
<path d="M189.947 59.274L187.758 58.8261C189.45 50.5796 196.81 44.5879 205.261 44.5879C213.669 44.5879 221.026 50.5366 222.755 58.7344L220.562 59.1983C219.052 52.0292 212.617 46.8183 205.262 46.8183C197.865 46.8192 191.424 52.0553 189.947 59.274Z" fill="#272727"/>
<path d="M151.668 41.5634L149.582 40.7498C158.596 17.7003 180.451 2.80469 205.26 2.80469C230.069 2.80469 251.921 17.7003 260.938 40.7442L258.854 41.5578C250.175 19.3734 229.139 5.03697 205.26 5.03697C181.38 5.03697 160.343 19.3734 151.668 41.5634Z" fill="#272727"/>
<path d="M160.206 42.8141L158.156 41.9164C166.333 23.2342 184.824 11.1562 205.259 11.1562C225.699 11.1562 244.186 23.2342 252.361 41.9164L250.308 42.8141C242.495 24.9399 224.812 13.3867 205.26 13.3867C185.714 13.3867 168.028 24.9399 160.206 42.8141Z" fill="#272727"/>
<path d="M168.31 45.2296L166.281 44.2832C173.326 29.2398 188.627 19.5176 205.261 19.5176C221.899 19.5176 237.201 29.2398 244.24 44.2888L242.212 45.2296C235.536 30.9671 221.033 21.7527 205.261 21.7527C189.492 21.7536 174.985 30.9671 168.31 45.2296Z" fill="#272727"/>
<path d="M293.17 48.7344L291.145 47.787C296.823 35.6895 309.138 27.877 322.516 27.877C335.89 27.877 348.204 35.6857 353.876 47.773L351.851 48.7147C346.542 37.413 335.027 30.1074 322.515 30.1074C310.001 30.1074 298.484 37.4215 293.17 48.7344Z" fill="#272727"/>
<path d="M300.303 53.2996L298.234 52.4561C302.304 42.5983 311.833 36.2344 322.515 36.2344C333.085 36.2344 342.577 42.5057 346.694 52.2223L344.636 53.0958C340.869 44.2096 332.185 38.4648 322.515 38.4648C312.742 38.4648 304.028 44.2891 300.303 53.2996Z" fill="#272727"/>
<path d="M307.201 59.274L305.012 58.8261C306.704 50.5796 314.063 44.5879 322.518 44.5879C330.924 44.5879 338.279 50.5366 340.006 58.7344L337.816 59.1983C336.306 52.0292 329.869 46.8183 322.518 46.8183C315.122 46.8192 308.682 52.0553 307.201 59.274Z" fill="#272727"/>
<path d="M268.92 41.5634L266.836 40.7498C275.85 17.7003 297.706 2.80469 322.516 2.80469C347.321 2.80469 369.174 17.7003 378.194 40.7442L376.112 41.5578C367.427 19.3724 346.391 5.03604 322.516 5.03604C298.635 5.03697 277.6 19.3734 268.92 41.5634Z" fill="#272727"/>
<path d="M367.565 42.8141C359.745 24.9399 342.065 13.3867 322.518 13.3867C302.967 13.3867 285.283 24.9399 277.466 42.8141L275.418 41.9164C283.591 23.2342 302.077 11.1562 322.517 11.1562C342.951 11.1562 361.441 23.2342 369.616 41.9164L367.565 42.8141Z" fill="#272727"/>
<path d="M359.473 45.2296C352.794 30.9671 338.291 21.7527 322.517 21.7527C306.747 21.7527 292.242 30.9671 285.565 45.2296L283.539 44.2888C290.581 29.2398 305.882 19.5176 322.517 19.5176C339.154 19.5176 354.455 29.2398 361.498 44.2888L359.473 45.2296Z" fill="#272727"/>
<path d="M298.509 99.5128H296.268C296.268 81.7022 281.744 67.2012 263.889 67.2012C246.033 67.2012 231.504 81.7022 231.504 99.5128H229.266C229.266 80.4696 244.797 64.9727 263.889 64.9727C282.978 64.9736 298.509 80.4696 298.509 99.5128Z" fill="#272727"/>
<path d="M290.131 99.5134H287.895C287.895 86.3076 277.127 75.5586 263.892 75.5586C250.655 75.5586 239.884 86.3076 239.884 99.5134H237.648C237.648 85.0751 249.421 73.3301 263.891 73.3301C278.361 73.3301 290.131 85.0751 290.131 99.5134Z" fill="#272727"/>
<path d="M281.76 99.513H279.521C279.521 90.9158 272.511 83.9216 263.892 83.9216C255.269 83.9216 248.26 90.9158 248.26 99.513H246.02C246.02 89.6842 254.036 81.6855 263.891 81.6855C273.743 81.6865 281.76 89.6842 281.76 99.513Z" fill="#272727"/>
<path d="M323.634 99.513H321.396C321.396 67.8757 295.596 42.1347 263.889 42.1347C232.178 42.1347 206.379 67.8757 206.379 99.513H204.141C204.141 66.6412 230.943 39.9043 263.889 39.9043C296.834 39.9043 323.634 66.6412 323.634 99.513Z" fill="#272727"/>
<path d="M315.26 99.5141H313.022C313.022 72.4779 290.978 50.488 263.888 50.488C236.793 50.488 214.753 72.4779 214.753 99.5141H212.516C212.516 71.25 235.559 48.252 263.888 48.252C292.214 48.252 315.26 71.251 315.26 99.5141Z" fill="#272727"/>
<path d="M306.883 99.513H304.643C304.643 77.0882 286.358 58.8456 263.888 58.8456C241.412 58.8456 223.129 77.0892 223.129 99.513H220.887C220.887 75.8613 240.177 56.6133 263.887 56.6133C287.594 56.6133 306.883 75.8613 306.883 99.513Z" fill="#272727"/>
<path d="M415.765 99.5128H413.526C413.526 81.7022 398.999 67.2012 381.142 67.2012C363.284 67.2012 348.759 81.7022 348.759 99.5128H346.523C346.523 80.4696 362.052 64.9727 381.142 64.9727C400.233 64.9736 415.765 80.4696 415.765 99.5128Z" fill="#272727"/>
<path d="M407.387 99.5134H405.149C405.149 86.3076 394.38 75.5586 381.141 75.5586C367.904 75.5586 357.134 86.3076 357.134 99.5134H354.898C354.898 85.0751 366.671 73.3301 381.141 73.3301C395.613 73.3301 407.387 85.0751 407.387 99.5134Z" fill="#272727"/>
<path d="M399.015 99.513H396.777C396.777 90.9158 389.762 83.9216 381.144 83.9216C372.527 83.9216 365.513 90.9158 365.513 99.513H363.277C363.277 89.6842 371.29 81.6855 381.144 81.6855C390.998 81.6865 399.015 89.6842 399.015 99.513Z" fill="#272727"/>
<path d="M440.891 99.513H438.656C438.656 67.8757 412.854 42.1347 381.144 42.1347C349.434 42.1347 323.637 67.8757 323.637 99.513H321.398C321.398 66.6412 348.201 39.9043 381.144 39.9043C414.088 39.9043 440.891 66.6412 440.891 99.513Z" fill="#272727"/>
<path d="M432.514 99.5141H430.278C430.278 72.4779 408.233 50.488 381.142 50.488C354.05 50.488 332.01 72.4779 332.01 99.5141H329.773C329.773 71.25 352.819 48.252 381.143 48.252C409.47 48.252 432.514 71.251 432.514 99.5141Z" fill="#272727"/>
<path d="M424.14 99.513H421.905C421.905 77.0882 403.617 58.8456 381.143 58.8456C358.67 58.8456 340.387 77.0892 340.387 99.513H338.148C338.148 75.8613 357.439 56.6133 381.143 56.6133C404.852 56.6133 424.14 75.8613 424.14 99.513Z" fill="#272727"/>
<path d="M410.38 48.7344L408.352 47.787C414.024 35.6895 426.338 27.877 439.721 27.877C453.097 27.877 465.404 35.6857 471.084 47.773L469.059 48.7147C463.747 37.413 452.234 30.1074 439.721 30.1074C427.202 30.1074 415.682 37.4215 410.38 48.7344Z" fill="#272727"/>
<path d="M417.514 53.2996L415.445 52.4561C419.506 42.5983 429.038 36.2344 439.72 36.2344C450.296 36.2344 459.787 42.5057 463.898 52.2279L461.84 53.0902C458.076 44.2096 449.395 38.4648 439.72 38.4648C429.949 38.4648 421.23 44.2891 417.514 53.2996Z" fill="#272727"/>
<path d="M424.408 59.274L422.219 58.8261C423.912 50.5796 431.271 44.5879 439.723 44.5879C448.131 44.5879 455.488 50.5366 457.216 58.7344L455.023 59.1983C453.512 52.0292 447.078 46.8183 439.723 46.8183C432.327 46.8192 425.887 52.0553 424.408 59.274Z" fill="#272727"/>
<path d="M386.129 41.5634L384.043 40.7498C393.056 17.7003 414.912 2.80469 439.721 2.80469C464.53 2.80469 486.382 17.7003 495.398 40.7442L493.315 41.5578C484.636 19.3724 463.6 5.03604 439.721 5.03604C415.841 5.03697 394.804 19.3734 386.129 41.5634Z" fill="#272727"/>
<path d="M394.667 42.8141L392.617 41.9164C400.794 23.2342 419.285 11.1562 439.72 11.1562C460.159 11.1562 478.646 23.2342 486.822 41.9164L484.768 42.8141C476.955 24.9399 459.272 13.3867 439.72 13.3867C420.175 13.3867 402.489 24.9399 394.667 42.8141Z" fill="#272727"/>
<path d="M402.771 45.2296L400.742 44.2832C407.787 29.2398 423.088 19.5176 439.721 19.5176C456.359 19.5176 471.661 29.2398 478.7 44.2888L476.673 45.2296C469.997 30.9671 455.494 21.7527 439.721 21.7527C423.954 21.7536 409.447 30.9671 402.771 45.2296Z" fill="#272727"/>
<path d="M527.634 48.7344L525.609 47.787C531.288 35.6895 543.603 27.877 556.982 27.877C570.355 27.877 582.669 35.6857 588.34 47.773L586.317 48.7147C581.006 37.413 569.491 30.1074 556.981 30.1074C544.465 30.1074 532.948 37.4215 527.634 48.7344Z" fill="#272727"/>
<path d="M534.768 53.2996L532.699 52.4561C536.769 42.5983 546.298 36.2344 556.98 36.2344C567.55 36.2344 577.041 42.5057 581.159 52.2223L579.101 53.0958C575.334 44.2096 566.65 38.4648 556.98 38.4648C547.206 38.4648 538.493 44.2891 534.768 53.2996Z" fill="#272727"/>
<path d="M541.662 59.274L539.473 58.8261C541.166 50.5796 548.525 44.5879 556.979 44.5879C565.385 44.5879 572.74 50.5366 574.467 58.7344L572.277 59.1983C570.766 52.0292 564.33 46.8183 556.979 46.8183C549.584 46.8192 543.144 52.0553 541.662 59.274Z" fill="#272727"/>
<path d="M503.381 41.5634L501.297 40.7498C510.311 17.7003 532.166 2.80469 556.978 2.80469C581.783 2.80469 603.636 17.7003 612.655 40.7442L610.574 41.5578C601.889 19.3724 580.852 5.03604 556.978 5.03604C533.096 5.03697 512.061 19.3734 503.381 41.5634Z" fill="#272727"/>
<path d="M602.026 42.8141C594.207 24.9399 576.526 13.3867 556.978 13.3867C537.427 13.3867 519.744 24.9399 511.927 42.8141L509.879 41.9164C518.053 23.2342 536.538 11.1562 556.978 11.1562C577.413 11.1562 595.901 23.2342 604.078 41.9164L602.026 42.8141Z" fill="#272727"/>
<path d="M593.935 45.2296C587.256 30.9671 572.752 21.7527 556.979 21.7527C541.209 21.7527 526.704 30.9671 520.026 45.2296L518 44.2888C525.042 29.2398 540.343 19.5176 556.979 19.5176C573.615 19.5176 588.916 29.2398 595.959 44.2888L593.935 45.2296Z" fill="#272727"/>
<path d="M532.971 99.5128H530.73C530.73 81.7022 516.206 67.2012 498.35 67.2012C480.494 67.2012 465.965 81.7022 465.965 99.5128H463.727C463.727 80.4696 479.258 64.9727 498.349 64.9727C517.439 64.9736 532.971 80.4696 532.971 99.5128Z" fill="#272727"/>
<path d="M524.592 99.5134H522.356C522.356 86.3076 511.588 75.5586 498.352 75.5586C485.116 75.5586 474.345 86.3076 474.345 99.5134H472.109C472.109 85.0751 483.882 73.3301 498.352 73.3301C512.822 73.3301 524.592 85.0751 524.592 99.5134Z" fill="#272727"/>
<path d="M516.221 99.513H513.982C513.982 90.9158 506.972 83.9216 498.352 83.9216C489.729 83.9216 482.721 90.9158 482.721 99.513H480.48C480.48 89.6842 488.497 81.6855 498.352 81.6855C508.204 81.6865 516.221 89.6842 516.221 99.513Z" fill="#272727"/>
<path d="M558.099 99.513H555.861C555.861 67.8757 530.062 42.1347 498.354 42.1347C466.643 42.1347 440.844 67.8757 440.844 99.513H438.605C438.605 66.6412 465.408 39.9043 498.354 39.9043C531.298 39.9043 558.099 66.6412 558.099 99.513Z" fill="#272727"/>
<path d="M549.724 99.5141H547.485C547.485 72.4779 525.442 50.488 498.352 50.488C471.257 50.488 449.217 72.4779 449.217 99.5141H446.98C446.98 71.25 470.023 48.252 498.353 48.252C526.678 48.252 549.724 71.251 549.724 99.5141Z" fill="#272727"/>
<path d="M541.347 99.513H539.107C539.107 77.0882 520.823 58.8456 498.352 58.8456C475.875 58.8456 457.593 77.0892 457.593 99.513H455.352C455.352 75.8613 474.642 56.6133 498.351 56.6133C522.058 56.6133 541.347 75.8613 541.347 99.513Z" fill="#272727"/>
<path d="M650.226 99.5128H647.987C647.987 81.7022 633.46 67.2012 615.603 67.2012C597.746 67.2012 583.221 81.7022 583.221 99.5128H580.984C580.984 80.4696 596.513 64.9727 615.603 64.9727C634.695 64.9736 650.226 80.4696 650.226 99.5128Z" fill="#272727"/>
<path d="M641.852 99.5134H639.614C639.614 86.3076 628.845 75.5586 615.606 75.5586C602.369 75.5586 591.599 86.3076 591.599 99.5134H589.363C589.363 85.0751 601.136 73.3301 615.606 73.3301C630.077 73.3301 641.852 85.0751 641.852 99.5134Z" fill="#272727"/>
<path d="M633.476 99.513H631.237C631.237 90.9158 624.224 83.9216 615.605 83.9216C606.988 83.9216 599.974 90.9158 599.974 99.513H597.738C597.738 89.6842 605.751 81.6855 615.605 81.6855C625.459 81.6865 633.476 89.6842 633.476 99.513Z" fill="#272727"/>
<path d="M675.353 99.513H673.118C673.118 67.8757 647.315 42.1347 615.605 42.1347C583.896 42.1347 558.098 67.8757 558.098 99.513H555.859C555.859 66.6412 582.662 39.9043 615.605 39.9043C648.55 39.9043 675.353 66.6412 675.353 99.513Z" fill="#272727"/>
<path d="M666.975 99.5141H664.739C664.739 72.4779 642.694 50.488 615.603 50.488C588.511 50.488 566.471 72.4779 566.471 99.5141H564.234C564.234 71.25 587.279 48.252 615.604 48.252C643.93 48.252 666.975 71.251 666.975 99.5141Z" fill="#272727"/>
<path d="M658.6 99.513H656.365C656.365 77.0882 638.078 58.8456 615.604 58.8456C593.129 58.8456 574.848 77.0892 574.848 99.513H572.609C572.609 75.8613 591.9 56.6133 615.604 56.6133C639.312 56.6133 658.6 75.8613 658.6 99.513Z" fill="#272727"/>
<path d="M645.52 48.7344L643.492 47.787C649.163 35.6895 661.48 27.877 674.862 27.877C688.237 27.877 700.544 35.6857 706.225 47.773L704.201 48.7147C698.888 37.413 687.375 30.1074 674.862 30.1074C662.343 30.1074 650.823 37.4215 645.52 48.7344Z" fill="#272727"/>
<path d="M652.654 53.2996L650.586 52.4561C654.647 42.5983 664.179 36.2344 674.861 36.2344C685.437 36.2344 694.927 42.5057 699.04 52.2279L696.981 53.0902C693.217 44.2096 684.537 38.4648 674.861 38.4648C665.09 38.4648 656.372 44.2891 652.654 53.2996Z" fill="#272727"/>
<path d="M659.55 59.274L657.359 58.8261C659.052 50.5796 666.412 44.5879 674.863 44.5879C683.272 44.5879 690.629 50.5366 692.356 58.7344L690.164 59.1983C688.653 52.0292 682.219 46.8183 674.863 46.8183C667.468 46.8192 661.028 52.0553 659.55 59.274Z" fill="#272727"/>
<path d="M621.27 41.5634L619.184 40.7498C628.198 17.7003 650.054 2.80469 674.862 2.80469C699.672 2.80469 721.523 17.7003 730.539 40.7442L728.456 41.5578C719.777 19.3724 698.741 5.03604 674.861 5.03604C650.981 5.03604 629.944 19.3734 621.27 41.5634Z" fill="#272727"/>
<path d="M629.807 42.8141L627.758 41.9164C635.934 23.2342 654.425 11.1562 674.86 11.1562C695.301 11.1562 713.787 23.2342 721.963 41.9164L719.91 42.8141C712.095 24.9399 694.412 13.3867 674.861 13.3867C655.315 13.3867 637.63 24.9399 629.807 42.8141Z" fill="#272727"/>
<path d="M637.912 45.2296L635.883 44.2832C642.927 29.2398 658.229 19.5176 674.862 19.5176C691.501 19.5176 706.802 29.2398 713.841 44.2888L711.815 45.2296C705.139 30.9671 690.635 21.7527 674.862 21.7527C659.094 21.7536 644.588 30.9671 637.912 45.2296Z" fill="#272727"/>
<path d="M762.774 48.7344L760.75 47.787C766.429 35.6895 778.742 27.877 792.123 27.877C805.495 27.877 817.81 35.6857 823.483 47.773L821.458 48.7147C816.149 37.413 804.633 30.1074 792.123 30.1074C779.607 30.1074 768.09 37.4215 762.774 48.7344Z" fill="#272727"/>
<path d="M769.907 53.2996L767.84 52.4561C771.91 42.5983 781.439 36.2344 792.12 36.2344C802.691 36.2344 812.182 42.5057 816.298 52.2223L814.239 53.0958C810.473 44.2096 801.789 38.4648 792.12 38.4648C782.347 38.4648 773.633 44.2891 769.907 53.2996Z" fill="#272727"/>
<path d="M776.803 59.274L774.613 58.8261C776.307 50.5796 783.664 44.5879 792.119 44.5879C800.526 44.5879 807.882 50.5366 809.608 58.7344L807.419 59.1983C805.907 52.0292 799.472 46.8183 792.119 46.8183C784.724 46.8192 778.284 52.0553 776.803 59.274Z" fill="#272727"/>
<path d="M738.522 41.5634L736.438 40.7498C745.452 17.7003 767.309 2.80469 792.119 2.80469C816.923 2.80469 838.777 17.7003 847.796 40.7442L845.714 41.5578C837.03 19.3724 815.991 5.03604 792.118 5.03604C768.237 5.03697 747.202 19.3734 738.522 41.5634Z" fill="#272727"/>
<path d="M837.167 42.8141C829.349 24.9399 811.665 13.3867 792.12 13.3867C772.569 13.3867 754.886 24.9399 747.068 42.8141L745.02 41.9164C753.193 23.2342 771.679 11.1562 792.119 11.1562C812.554 11.1562 831.043 23.2342 839.219 41.9164L837.167 42.8141Z" fill="#272727"/>
<path d="M829.077 45.2296C822.397 30.9671 807.893 21.7527 792.12 21.7527C776.35 21.7527 761.844 30.9671 755.167 45.2296L753.141 44.2888C760.182 29.2398 775.484 19.5176 792.12 19.5176C808.756 19.5176 824.057 29.2398 831.101 44.2888L829.077 45.2296Z" fill="#272727"/>
<path d="M768.111 99.5128H765.869C765.869 81.7022 751.347 67.2012 733.491 67.2012C715.635 67.2012 701.105 81.7022 701.105 99.5128H698.867C698.867 80.4696 714.397 64.9727 733.49 64.9727C752.58 64.9736 768.111 80.4696 768.111 99.5128Z" fill="#272727"/>
<path d="M759.732 99.5134H757.496C757.496 86.3076 746.729 75.5586 733.493 75.5586C720.256 75.5586 709.485 86.3076 709.485 99.5134H707.25C707.25 85.0751 719.024 73.3301 733.493 73.3301C747.961 73.3301 759.732 85.0751 759.732 99.5134Z" fill="#272727"/>
<path d="M751.362 99.513H749.123C749.123 90.9158 742.113 83.9216 733.494 83.9216C724.871 83.9216 717.862 90.9158 717.862 99.513H715.621C715.621 89.6842 723.637 81.6855 733.493 81.6855C743.346 81.6865 751.362 89.6842 751.362 99.513Z" fill="#272727"/>
<path d="M793.24 99.513H791.001C791.001 67.8757 765.203 42.1347 733.495 42.1347C701.783 42.1347 675.984 67.8757 675.984 99.513H673.746C673.746 66.6412 700.549 39.9043 733.495 39.9043C766.438 39.9043 793.24 66.6412 793.24 99.513Z" fill="#272727"/>
<path d="M784.862 99.5141H782.624C782.624 72.4779 760.581 50.488 733.491 50.488C706.396 50.488 684.354 72.4779 684.354 99.5141H682.117C682.117 71.25 705.16 48.252 733.491 48.252C761.816 48.252 784.862 71.251 784.862 99.5141Z" fill="#272727"/>
<path d="M776.487 99.513H774.247C774.247 77.0882 755.963 58.8456 733.492 58.8456C711.016 58.8456 692.733 77.0892 692.733 99.513H690.492C690.492 75.8613 709.783 56.6133 733.492 56.6133C757.198 56.6133 776.487 75.8613 776.487 99.513Z" fill="#272727"/>
<path d="M885.369 99.5128H883.13C883.13 81.7022 868.605 67.2012 850.747 67.2012C832.89 67.2012 818.364 81.7022 818.364 99.5128H816.129C816.129 80.4696 831.656 64.9727 850.747 64.9727C869.838 64.9727 885.369 80.4696 885.369 99.5128Z" fill="#272727"/>
<path d="M876.992 99.5134H874.755C874.755 86.3076 863.986 75.5586 850.745 75.5586C837.51 75.5586 826.739 86.3076 826.739 99.5134H824.504C824.504 85.0751 836.277 73.3301 850.745 73.3301C865.218 73.3301 876.992 85.0751 876.992 99.5134Z" fill="#272727"/>
<path d="M868.616 99.513H866.377C866.377 90.9158 859.365 83.9216 850.744 83.9216C842.128 83.9216 835.114 90.9158 835.114 99.513H832.879C832.879 89.6842 840.891 81.6855 850.744 81.6855C860.6 81.6865 868.616 89.6842 868.616 99.513Z" fill="#272727"/>
<path d="M910.495 99.513H908.258C908.258 67.8757 882.459 42.1347 850.746 42.1347C819.038 42.1347 793.239 67.8757 793.239 99.513H791C791 66.6412 817.802 39.9043 850.746 39.9043C883.691 39.9043 910.495 66.6412 910.495 99.513Z" fill="#272727"/>
<path d="M902.118 99.5141H899.883C899.883 72.4779 877.838 50.488 850.745 50.488C823.654 50.488 801.612 72.4779 801.612 99.5141H799.375C799.375 71.25 822.422 48.252 850.745 48.252C879.073 48.252 902.118 71.251 902.118 99.5141Z" fill="#272727"/>
<path d="M893.742 99.513H891.504C891.504 77.0882 873.219 58.8456 850.745 58.8456C828.272 58.8456 809.987 77.0892 809.987 99.513H807.75C807.75 75.8613 827.039 56.6133 850.745 56.6133C874.453 56.6133 893.742 75.8613 893.742 99.513Z" fill="#272727"/>
<path d="M880.032 48.7344L878.004 47.787C883.677 35.6895 895.991 27.877 909.375 27.877C922.749 27.877 935.057 35.6857 940.738 47.773L938.713 48.7147C933.399 37.413 921.887 30.1074 909.375 30.1074C896.855 30.1074 885.335 37.4215 880.032 48.7344Z" fill="#272727"/>
<path d="M887.168 53.2996L885.102 52.4561C889.162 42.5983 898.694 36.2344 909.374 36.2344C919.951 36.2344 929.443 42.5057 933.555 52.2279L931.495 53.0902C927.731 44.2096 919.052 38.4648 909.374 38.4648C899.605 38.4648 890.885 44.2891 887.168 53.2996Z" fill="#272727"/>
<path d="M894.061 59.274L891.871 58.8261C893.563 50.5796 900.923 44.5879 909.375 44.5879C917.783 44.5879 925.14 50.5366 926.868 58.7344L924.675 59.1983C923.163 52.0292 916.73 46.8183 909.375 46.8183C901.979 46.8192 895.538 52.0553 894.061 59.274Z" fill="#272727"/>
<path d="M855.783 41.5634L853.695 40.7498C862.71 17.7003 884.566 2.80469 909.374 2.80469C934.182 2.80469 956.034 17.7003 965.051 40.7442L962.967 41.5578C954.288 19.3724 933.254 5.03604 909.374 5.03604C885.493 5.03604 864.456 19.3734 855.783 41.5634Z" fill="#272727"/>
<path d="M864.322 42.8141L862.273 41.9164C870.449 23.2342 888.939 11.1562 909.376 11.1562C929.816 11.1562 948.303 23.2342 956.478 41.9164L954.425 42.8141C946.61 24.9399 928.927 13.3867 909.377 13.3867C889.829 13.3867 872.144 24.9399 864.322 42.8141Z" fill="#272727"/>
<path d="M872.425 45.2296L870.395 44.2832C877.439 29.2398 892.74 19.5176 909.375 19.5176C926.013 19.5176 941.314 29.2398 948.353 44.2888L946.327 45.2296C939.651 30.9671 925.147 21.7527 909.375 21.7527C893.606 21.7536 879.099 30.9671 872.425 45.2296Z" fill="#272727"/>
<path d="M997.284 48.7344L995.258 47.787C1000.94 35.6895 1013.25 27.877 1026.63 27.877C1040 27.877 1052.32 35.6857 1057.99 47.773L1055.97 48.7147C1050.66 37.413 1039.14 30.1074 1026.63 30.1074C1014.11 30.1074 1002.6 37.4215 997.284 48.7344Z" fill="#272727"/>
<path d="M1004.42 53.2996L1002.35 52.4561C1006.42 42.5983 1015.95 36.2344 1026.63 36.2344C1037.2 36.2344 1046.69 42.5057 1050.81 52.2223L1048.75 53.0958C1044.99 44.2096 1036.3 38.4648 1026.63 38.4648C1016.86 38.4648 1008.14 44.2891 1004.42 53.2996Z" fill="#272727"/>
<path d="M1011.31 59.274L1009.12 58.8261C1010.82 50.5796 1018.18 44.5879 1026.63 44.5879C1035.04 44.5879 1042.39 50.5366 1044.12 58.7344L1041.93 59.1983C1040.42 52.0292 1033.98 46.8183 1026.63 46.8183C1019.24 46.8192 1012.8 52.0553 1011.31 59.274Z" fill="#272727"/>
<path d="M973.038 41.5634L970.953 40.7498C979.967 17.7003 1001.82 2.80469 1026.63 2.80469C1051.44 2.80469 1073.29 17.7003 1082.31 40.7442L1080.23 41.5578C1071.54 19.3724 1050.51 5.03604 1026.63 5.03604C1002.75 5.03697 981.717 19.3734 973.038 41.5634Z" fill="#272727"/>
<path d="M1071.68 42.8141C1063.86 24.9399 1046.18 13.3867 1026.63 13.3867C1007.08 13.3867 989.402 24.9399 981.582 42.8141L979.535 41.9164C987.709 23.2342 1006.19 11.1562 1026.63 11.1562C1047.07 11.1562 1065.56 23.2342 1073.73 41.9164L1071.68 42.8141Z" fill="#272727"/>
<path d="M1063.59 45.2296C1056.91 30.9671 1042.4 21.7527 1026.63 21.7527C1010.86 21.7527 996.357 30.9671 989.679 45.2296L987.652 44.2888C994.695 29.2398 1010 19.5176 1026.63 19.5176C1043.27 19.5176 1058.57 29.2398 1065.61 44.2888L1063.59 45.2296Z" fill="#272727"/>
<path d="M1002.62 99.5128H1000.38C1000.38 81.7022 985.86 67.2012 968.005 67.2012C950.147 67.2012 935.618 81.7022 935.618 99.5128H933.379C933.379 80.4696 948.911 64.9727 968.004 64.9727C987.093 64.9736 1002.62 80.4696 1002.62 99.5128Z" fill="#272727"/>
<path d="M994.242 99.5134H992.007C992.007 86.3076 981.24 75.5586 968.005 75.5586C954.768 75.5586 943.997 86.3076 943.997 99.5134H941.762C941.762 85.0751 953.535 73.3301 968.005 73.3301C982.473 73.3301 994.242 85.0751 994.242 99.5134Z" fill="#272727"/>
<path d="M985.874 99.513H983.637C983.637 90.9158 976.626 83.9216 968.005 83.9216C959.383 83.9216 952.376 90.9158 952.376 99.513H950.133C950.133 89.6842 958.149 81.6855 968.004 81.6855C977.858 81.6865 985.874 89.6842 985.874 99.513Z" fill="#272727"/>
<path d="M1027.75 99.513H1025.51C1025.51 67.8757 999.715 42.1347 968.006 42.1347C936.295 42.1347 910.497 67.8757 910.497 99.513H908.258C908.258 66.6412 935.061 39.9043 968.006 39.9043C1000.95 39.9043 1027.75 66.6412 1027.75 99.513Z" fill="#272727"/>
<path d="M1019.38 99.5141H1017.14C1017.14 72.4779 995.096 50.488 968.004 50.488C940.91 50.488 918.87 72.4779 918.87 99.5141H916.633C916.633 71.25 939.676 48.252 968.004 48.252C996.331 48.252 1019.38 71.251 1019.38 99.5141Z" fill="#272727"/>
<path d="M1011 99.513H1008.76C1008.76 77.0882 990.475 58.8456 968.004 58.8456C945.529 58.8456 927.247 77.0892 927.247 99.513H925.004C925.004 75.8613 944.294 56.6133 968.004 56.6133C991.71 56.6133 1011 75.8613 1011 99.513Z" fill="#272727"/>
<path d="M1119.88 99.5128H1117.64C1117.64 81.7022 1103.12 67.2012 1085.26 67.2012C1067.4 67.2012 1052.88 81.7022 1052.88 99.5128H1050.64C1050.64 80.4696 1066.17 64.9727 1085.26 64.9727C1104.35 64.9736 1119.88 80.4696 1119.88 99.5128Z" fill="#272727"/>
<path d="M1111.5 99.5134H1109.26C1109.26 86.3076 1098.5 75.5586 1085.26 75.5586C1072.02 75.5586 1061.25 86.3076 1061.25 99.5134H1059.02C1059.02 85.0751 1070.79 73.3301 1085.26 73.3301C1099.73 73.3301 1111.5 85.0751 1111.5 99.5134Z" fill="#272727"/>
<path d="M1103.13 99.513H1100.89C1100.89 90.9158 1093.88 83.9216 1085.26 83.9216C1076.64 83.9216 1069.63 90.9158 1069.63 99.513H1067.39C1067.39 89.6842 1075.41 81.6855 1085.26 81.6855C1095.11 81.6865 1103.13 89.6842 1103.13 99.513Z" fill="#272727"/>
<path d="M1145.01 99.513H1142.77C1142.77 67.8757 1116.97 42.1347 1085.26 42.1347C1053.55 42.1347 1027.75 67.8757 1027.75 99.513H1025.51C1025.51 66.6412 1052.32 39.9043 1085.26 39.9043C1118.2 39.9043 1145.01 66.6412 1145.01 99.513Z" fill="#272727"/>
<path d="M1136.63 99.5141H1134.39C1134.39 72.4779 1112.35 50.488 1085.26 50.488C1058.17 50.488 1036.12 72.4779 1036.12 99.5141H1033.89C1033.89 71.25 1056.93 48.252 1085.26 48.252C1113.58 48.252 1136.63 71.251 1136.63 99.5141Z" fill="#272727"/>
<path d="M1128.25 99.513H1126.02C1126.02 77.0882 1107.73 58.8456 1085.26 58.8456C1062.78 58.8456 1044.5 77.0892 1044.5 99.513H1042.26C1042.26 75.8613 1061.55 56.6133 1085.26 56.6133C1108.97 56.6133 1128.25 75.8613 1128.25 99.513Z" fill="#272727"/>
<path d="M1115.17 48.7344L1113.14 47.787C1118.82 35.6895 1131.13 27.877 1144.51 27.877C1157.89 27.877 1170.2 35.6857 1175.88 47.773L1173.85 48.7147C1168.54 37.413 1157.03 30.1074 1144.51 30.1074C1132 30.1074 1120.48 37.4215 1115.17 48.7344Z" fill="#272727"/>
<path d="M1122.31 53.2996L1120.24 52.4561C1124.3 42.5983 1133.83 36.2344 1144.51 36.2344C1155.09 36.2344 1164.58 42.5057 1168.69 52.2279L1166.63 53.0902C1162.87 44.2096 1154.19 38.4648 1144.51 38.4648C1134.74 38.4648 1126.02 44.2891 1122.31 53.2996Z" fill="#272727"/>
<path d="M1129.2 59.274L1127.01 58.8261C1128.7 50.5796 1136.06 44.5879 1144.51 44.5879C1152.92 44.5879 1160.28 50.5366 1162.01 58.7344L1159.82 59.1983C1158.3 52.0292 1151.87 46.8183 1144.51 46.8183C1137.12 46.8192 1130.68 52.0553 1129.2 59.274Z" fill="#272727"/>
<path d="M1090.92 41.5634L1088.84 40.7498C1097.85 17.7003 1119.71 2.80469 1144.51 2.80469C1169.32 2.80469 1191.17 17.7003 1200.19 40.7442L1198.11 41.5578C1189.43 19.3724 1168.39 5.03604 1144.51 5.03604C1120.63 5.03604 1099.6 19.3734 1090.92 41.5634Z" fill="#272727"/>
<path d="M1099.46 42.8141L1097.41 41.9164C1105.59 23.2342 1124.08 11.1562 1144.51 11.1562C1164.95 11.1562 1183.44 23.2342 1191.61 41.9164L1189.56 42.8141C1181.75 24.9399 1164.07 13.3867 1144.51 13.3867C1124.97 13.3867 1107.28 24.9399 1099.46 42.8141Z" fill="#272727"/>
<path d="M1107.56 45.2296L1105.54 44.2832C1112.58 29.2398 1127.88 19.5176 1144.51 19.5176C1161.15 19.5176 1176.45 29.2398 1183.49 44.2888L1181.47 45.2296C1174.79 30.9671 1160.29 21.7527 1144.51 21.7527C1128.75 21.7536 1114.24 30.9671 1107.56 45.2296Z" fill="#272727"/>
<path d="M1232.43 48.7344L1230.4 47.787C1236.08 35.6895 1248.4 27.877 1261.77 27.877C1275.15 27.877 1287.46 35.6857 1293.13 47.773L1291.11 48.7147C1285.8 37.413 1274.29 30.1074 1261.77 30.1074C1249.26 30.1074 1237.74 37.4215 1232.43 48.7344Z" fill="#272727"/>
<path d="M1239.56 53.2996L1237.49 52.4561C1241.56 42.5983 1251.09 36.2344 1261.77 36.2344C1272.34 36.2344 1281.83 42.5057 1285.95 52.2223L1283.89 53.0958C1280.13 44.2096 1271.44 38.4648 1261.77 38.4648C1252 38.4648 1243.29 44.2891 1239.56 53.2996Z" fill="#272727"/>
<path d="M1246.46 59.274L1244.27 58.8261C1245.96 50.5796 1253.32 44.5879 1261.77 44.5879C1270.18 44.5879 1277.53 50.5366 1279.26 58.7344L1277.07 59.1983C1275.56 52.0292 1269.12 46.8183 1261.77 46.8183C1254.38 46.8192 1247.94 52.0553 1246.46 59.274Z" fill="#272727"/>
<path d="M1208.18 41.5634L1206.09 40.7498C1215.11 17.7003 1236.96 2.80469 1261.77 2.80469C1286.58 2.80469 1308.43 17.7003 1317.45 40.7442L1315.37 41.5578C1306.68 19.3724 1285.65 5.03604 1261.77 5.03604C1237.89 5.03697 1216.86 19.3734 1208.18 41.5634Z" fill="#272727"/>
<path d="M1306.82 42.8141C1299 24.9399 1281.32 13.3867 1261.77 13.3867C1242.22 13.3867 1224.54 24.9399 1216.72 42.8141L1214.68 41.9164C1222.85 23.2342 1241.33 11.1562 1261.77 11.1562C1282.21 11.1562 1300.7 23.2342 1308.87 41.9164L1306.82 42.8141Z" fill="#272727"/>
<path d="M1298.73 45.2296C1292.05 30.9671 1277.55 21.7527 1261.77 21.7527C1246 21.7527 1231.5 30.9671 1224.82 45.2296L1222.79 44.2888C1229.84 29.2398 1245.14 19.5176 1261.77 19.5176C1278.41 19.5176 1293.71 29.2398 1300.75 44.2888L1298.73 45.2296Z" fill="#272727"/>
<path d="M1237.77 99.5128H1235.52C1235.52 81.7022 1221 67.2012 1203.14 67.2012C1185.29 67.2012 1170.76 81.7022 1170.76 99.5128H1168.52C1168.52 80.4696 1184.05 64.9727 1203.14 64.9727C1222.23 64.9736 1237.77 80.4696 1237.77 99.5128Z" fill="#272727"/>
<path d="M1229.38 99.5134H1227.15C1227.15 86.3076 1216.38 75.5586 1203.15 75.5586C1189.91 75.5586 1179.14 86.3076 1179.14 99.5134H1176.9C1176.9 85.0751 1188.68 73.3301 1203.15 73.3301C1217.61 73.3301 1229.38 85.0751 1229.38 99.5134Z" fill="#272727"/>
<path d="M1221.01 99.513H1218.78C1218.78 90.9158 1211.77 83.9216 1203.15 83.9216C1194.52 83.9216 1187.51 90.9158 1187.51 99.513H1185.27C1185.27 89.6842 1193.29 81.6855 1203.14 81.6855C1213 81.6865 1221.01 89.6842 1221.01 99.513Z" fill="#272727"/>
<path d="M1262.89 99.513H1260.65C1260.65 67.8757 1234.86 42.1347 1203.15 42.1347C1171.44 42.1347 1145.64 67.8757 1145.64 99.513H1143.4C1143.4 66.6412 1170.2 39.9043 1203.15 39.9043C1236.09 39.9043 1262.89 66.6412 1262.89 99.513Z" fill="#272727"/>
<path d="M1254.52 99.5141H1252.28C1252.28 72.4779 1230.24 50.488 1203.15 50.488C1176.05 50.488 1154.01 72.4779 1154.01 99.5141H1151.77C1151.77 71.25 1174.82 48.252 1203.15 48.252C1231.47 48.252 1254.52 71.251 1254.52 99.5141Z" fill="#272727"/>
<path d="M1246.14 99.513H1243.9C1243.9 77.0882 1225.62 58.8456 1203.14 58.8456C1180.67 58.8456 1162.39 77.0892 1162.39 99.513H1160.14C1160.14 75.8613 1179.44 56.6133 1203.14 56.6133C1226.85 56.6133 1246.14 75.8613 1246.14 99.513Z" fill="#272727"/>
<path d="M1355.02 99.5128H1352.78C1352.78 81.7022 1338.26 67.2012 1320.4 67.2012C1302.54 67.2012 1288.02 81.7022 1288.02 99.5128H1285.78C1285.78 80.4696 1301.31 64.9727 1320.4 64.9727C1339.49 64.9736 1355.02 80.4696 1355.02 99.5128Z" fill="#272727"/>
<path d="M1346.65 99.5134H1344.41C1344.41 86.3076 1333.64 75.5586 1320.4 75.5586C1307.16 75.5586 1296.39 86.3076 1296.39 99.5134H1294.16C1294.16 85.0751 1305.93 73.3301 1320.4 73.3301C1334.87 73.3301 1346.65 85.0751 1346.65 99.5134Z" fill="#272727"/>
<path d="M1338.27 99.513H1336.03C1336.03 90.9158 1329.02 83.9216 1320.4 83.9216C1311.78 83.9216 1304.77 90.9158 1304.77 99.513H1302.53C1302.53 89.6842 1310.55 81.6855 1320.4 81.6855C1330.26 81.6865 1338.27 89.6842 1338.27 99.513Z" fill="#272727"/>
<path d="M1380.15 99.513H1377.91C1377.91 67.8757 1352.11 42.1347 1320.4 42.1347C1288.69 42.1347 1262.89 67.8757 1262.89 99.513H1260.65C1260.65 66.6412 1287.46 39.9043 1320.4 39.9043C1353.34 39.9043 1380.15 66.6412 1380.15 99.513Z" fill="#272727"/>
<path d="M1371.77 99.5141H1369.53C1369.53 72.4779 1347.49 50.488 1320.4 50.488C1293.3 50.488 1271.26 72.4779 1271.26 99.5141H1269.03C1269.03 71.25 1292.07 48.252 1320.4 48.252C1348.73 48.252 1371.77 71.251 1371.77 99.5141Z" fill="#272727"/>
<path d="M1363.4 99.513H1361.16C1361.16 77.0882 1342.87 58.8456 1320.4 58.8456C1297.93 58.8456 1279.65 77.0892 1279.65 99.513H1277.41C1277.41 75.8613 1296.7 56.6133 1320.4 56.6133C1344.11 56.6133 1363.4 75.8613 1363.4 99.513Z" fill="#272727"/>
<path d="M1350.07 48.7344L1348.04 47.787C1353.71 35.6895 1366.03 27.877 1379.41 27.877C1392.79 27.877 1405.1 35.6857 1410.78 47.773L1408.75 48.7147C1403.44 37.413 1391.93 30.1074 1379.41 30.1074C1366.89 30.1074 1355.37 37.4215 1350.07 48.7344Z" fill="#272727"/>
<path d="M1357.21 53.2996L1355.14 52.4561C1359.2 42.5983 1368.73 36.2344 1379.41 36.2344C1389.99 36.2344 1399.48 42.5057 1403.59 52.2279L1401.53 53.0902C1397.77 44.2096 1389.09 38.4648 1379.41 38.4648C1369.64 38.4648 1360.92 44.2891 1357.21 53.2996Z" fill="#272727"/>
<path d="M1364.1 59.274L1361.91 58.8261C1363.6 50.5796 1370.96 44.5879 1379.41 44.5879C1387.82 44.5879 1395.18 50.5366 1396.91 58.7344L1394.71 59.1983C1393.2 52.0292 1386.77 46.8183 1379.41 46.8183C1372.02 46.8192 1365.58 52.0553 1364.1 59.274Z" fill="#272727"/>
<path d="M1325.82 41.5634L1323.73 40.7498C1332.75 17.7003 1354.6 2.80469 1379.41 2.80469C1404.22 2.80469 1426.07 17.7003 1435.09 40.7442L1433.01 41.5578C1424.33 19.3724 1403.29 5.03604 1379.41 5.03604C1355.53 5.03604 1334.49 19.3734 1325.82 41.5634Z" fill="#272727"/>
<path d="M1334.36 42.8141L1332.31 41.9164C1340.49 23.2342 1358.98 11.1562 1379.41 11.1562C1399.85 11.1562 1418.34 23.2342 1426.51 41.9164L1424.46 42.8141C1416.65 24.9399 1398.96 13.3867 1379.41 13.3867C1359.87 13.3867 1342.18 24.9399 1334.36 42.8141Z" fill="#272727"/>
<path d="M1342.46 45.2296L1340.43 44.2832C1347.48 29.2398 1362.78 19.5176 1379.41 19.5176C1396.05 19.5176 1411.35 29.2398 1418.39 44.2888L1416.37 45.2296C1409.69 30.9671 1395.19 21.7527 1379.41 21.7527C1363.64 21.7536 1349.14 30.9671 1342.46 45.2296Z" fill="#272727"/>
<path d="M1467.33 48.7344L1465.3 47.787C1470.98 35.6895 1483.3 27.877 1496.67 27.877C1510.05 27.877 1522.36 35.6857 1528.03 47.773L1526.01 48.7147C1520.7 37.413 1509.19 30.1074 1496.67 30.1074C1484.16 30.1074 1472.64 37.4215 1467.33 48.7344Z" fill="#272727"/>
<path d="M1584.89 48.7344L1582.86 47.787C1588.54 35.6895 1600.86 27.877 1614.24 27.877C1627.61 27.877 1639.92 35.6857 1645.6 47.773L1643.57 48.7147C1638.26 37.413 1626.75 30.1074 1614.24 30.1074C1601.72 30.1074 1590.2 37.4215 1584.89 48.7344Z" fill="#272727"/>
<path d="M1702.98 48.7344L1700.96 47.787C1706.64 35.6895 1718.95 27.877 1732.33 27.877C1745.7 27.877 1758.02 35.6857 1763.69 47.773L1761.67 48.7147C1756.36 37.413 1744.84 30.1074 1732.33 30.1074C1719.81 30.1074 1708.3 37.4215 1702.98 48.7344Z" fill="#272727"/>
<path d="M1474.46 53.2996L1472.39 52.4561C1476.46 42.5983 1485.99 36.2344 1496.67 36.2344C1507.24 36.2344 1516.73 42.5057 1520.85 52.2223L1518.79 53.0958C1515.03 44.2096 1506.34 38.4648 1496.67 38.4648C1486.9 38.4648 1478.18 44.2891 1474.46 53.2996Z" fill="#272727"/>
<path d="M1592.02 53.2996L1589.95 52.4561C1594.02 42.5983 1603.55 36.2344 1614.23 36.2344C1624.8 36.2344 1634.29 42.5057 1638.41 52.2223L1636.35 53.0958C1632.59 44.2096 1623.9 38.4648 1614.23 38.4648C1604.46 38.4648 1595.75 44.2891 1592.02 53.2996Z" fill="#272727"/>
<path d="M1710.12 53.2996L1708.05 52.4561C1712.12 42.5983 1721.65 36.2344 1732.33 36.2344C1742.9 36.2344 1752.39 42.5057 1756.51 52.2223L1754.45 53.0958C1750.68 44.2096 1742 38.4648 1732.33 38.4648C1722.55 38.4648 1713.84 44.2891 1710.12 53.2996Z" fill="#272727"/>
<path d="M1481.35 59.274L1479.16 58.8261C1480.86 50.5796 1488.22 44.5879 1496.67 44.5879C1505.08 44.5879 1512.43 50.5366 1514.16 58.7344L1511.97 59.1983C1510.46 52.0292 1504.02 46.8183 1496.67 46.8183C1489.27 46.8192 1482.83 52.0553 1481.35 59.274Z" fill="#272727"/>
<path d="M1598.92 59.274L1596.73 58.8261C1598.42 50.5796 1605.78 44.5879 1614.23 44.5879C1622.64 44.5879 1630 50.5366 1631.72 58.7344L1629.53 59.1983C1628.02 52.0292 1621.58 46.8183 1614.23 46.8183C1606.84 46.8192 1600.4 52.0553 1598.92 59.274Z" fill="#272727"/>
<path d="M1717.01 59.274L1714.82 58.8261C1716.51 50.5796 1723.87 44.5879 1732.33 44.5879C1740.73 44.5879 1748.09 50.5366 1749.82 58.7344L1747.62 59.1983C1746.11 52.0292 1739.68 46.8183 1732.33 46.8183C1724.93 46.8192 1718.49 52.0553 1717.01 59.274Z" fill="#272727"/>
<path d="M1443.08 41.5634L1440.99 40.7498C1450.01 17.7003 1471.86 2.80469 1496.67 2.80469C1521.48 2.80469 1543.33 17.7003 1552.35 40.7442L1550.27 41.5578C1541.58 19.3724 1520.55 5.03604 1496.67 5.03604C1472.79 5.03697 1451.76 19.3734 1443.08 41.5634Z" fill="#272727"/>
<path d="M1560.64 41.5634L1558.55 40.7498C1567.57 17.7003 1589.42 2.80469 1614.24 2.80469C1639.04 2.80469 1660.89 17.7003 1669.91 40.7442L1667.83 41.5578C1659.15 19.3724 1638.11 5.03604 1614.23 5.03604C1590.35 5.03697 1569.32 19.3734 1560.64 41.5634Z" fill="#272727"/>
<path d="M1678.73 41.5634L1676.64 40.7498C1685.66 17.7003 1707.51 2.80469 1732.33 2.80469C1757.13 2.80469 1778.98 17.7003 1788 40.7442L1785.92 41.5578C1777.24 19.3724 1756.2 5.03604 1732.32 5.03604C1708.44 5.03697 1687.41 19.3734 1678.73 41.5634Z" fill="#272727"/>
<path d="M1541.72 42.8141C1533.9 24.9399 1516.22 13.3867 1496.67 13.3867C1477.12 13.3867 1459.44 24.9399 1451.62 42.8141L1449.57 41.9164C1457.75 23.2342 1476.23 11.1562 1496.67 11.1562C1517.11 11.1562 1535.6 23.2342 1543.77 41.9164L1541.72 42.8141Z" fill="#272727"/>
<path d="M1659.28 42.8141C1651.46 24.9399 1633.78 13.3867 1614.24 13.3867C1594.69 13.3867 1577 24.9399 1569.18 42.8141L1567.14 41.9164C1575.31 23.2342 1593.79 11.1562 1614.24 11.1562C1634.67 11.1562 1653.16 23.2342 1661.34 41.9164L1659.28 42.8141Z" fill="#272727"/>
<path d="M1777.38 42.8141C1769.56 24.9399 1751.88 13.3867 1732.33 13.3867C1712.78 13.3867 1695.1 24.9399 1687.28 42.8141L1685.23 41.9164C1693.4 23.2342 1711.89 11.1562 1732.33 11.1562C1752.76 11.1562 1771.25 23.2342 1779.43 41.9164L1777.38 42.8141Z" fill="#272727"/>
<path d="M1533.63 45.2296C1526.95 30.9671 1512.45 21.7527 1496.67 21.7527C1480.9 21.7527 1466.4 30.9671 1459.72 45.2296L1457.7 44.2888C1464.74 29.2398 1480.04 19.5176 1496.67 19.5176C1513.31 19.5176 1528.61 29.2398 1535.65 44.2888L1533.63 45.2296Z" fill="#272727"/>
<path d="M1651.19 45.2296C1644.51 30.9671 1630.01 21.7527 1614.23 21.7527C1598.46 21.7527 1583.96 30.9671 1577.28 45.2296L1575.25 44.2888C1582.3 29.2398 1597.6 19.5176 1614.23 19.5176C1630.87 19.5176 1646.17 29.2398 1653.21 44.2888L1651.19 45.2296Z" fill="#272727"/>
<path d="M1769.28 45.2296C1762.6 30.9671 1748.1 21.7527 1732.33 21.7527C1716.56 21.7527 1702.05 30.9671 1695.37 45.2296L1693.35 44.2888C1700.39 29.2398 1715.69 19.5176 1732.33 19.5176C1748.96 19.5176 1764.26 29.2398 1771.31 44.2888L1769.28 45.2296Z" fill="#272727"/>
<path d="M1472.67 99.5128H1470.42C1470.42 81.7022 1455.9 67.2012 1438.05 67.2012C1420.19 67.2012 1405.66 81.7022 1405.66 99.5128H1403.42C1403.42 80.4696 1418.95 64.9727 1438.04 64.9727C1457.14 64.9736 1472.67 80.4696 1472.67 99.5128Z" fill="#272727"/>
<path d="M1464.28 99.5134H1462.05C1462.05 86.3076 1451.28 75.5586 1438.04 75.5586C1424.81 75.5586 1414.04 86.3076 1414.04 99.5134H1411.8C1411.8 85.0751 1423.58 73.3301 1438.04 73.3301C1452.51 73.3301 1464.28 85.0751 1464.28 99.5134Z" fill="#272727"/>
<path d="M1455.91 99.513H1453.68C1453.68 90.9158 1446.67 83.9216 1438.04 83.9216C1429.42 83.9216 1422.41 90.9158 1422.41 99.513H1420.17C1420.17 89.6842 1428.19 81.6855 1438.04 81.6855C1447.9 81.6865 1455.91 89.6842 1455.91 99.513Z" fill="#272727"/>
<path d="M1497.79 99.513H1495.55C1495.55 67.8757 1469.75 42.1347 1438.04 42.1347C1406.33 42.1347 1380.53 67.8757 1380.53 99.513H1378.3C1378.3 66.6412 1405.1 39.9043 1438.04 39.9043C1470.99 39.9043 1497.79 66.6412 1497.79 99.513Z" fill="#272727"/>
<path d="M1489.41 99.5141H1487.18C1487.18 72.4779 1465.14 50.488 1438.04 50.488C1410.95 50.488 1388.91 72.4779 1388.91 99.5141H1386.67C1386.67 71.25 1409.71 48.252 1438.04 48.252C1466.37 48.252 1489.41 71.251 1489.41 99.5141Z" fill="#272727"/>
<path d="M1481.04 99.513H1478.8C1478.8 77.0882 1460.51 58.8456 1438.04 58.8456C1415.57 58.8456 1397.28 77.0892 1397.28 99.513H1395.04C1395.04 75.8613 1414.33 56.6133 1438.04 56.6133C1461.75 56.6133 1481.04 75.8613 1481.04 99.513Z" fill="#272727"/>
<path d="M1589.92 99.5128H1587.68C1587.68 81.7022 1573.16 67.2012 1555.3 67.2012C1537.44 67.2012 1522.92 81.7022 1522.92 99.5128H1520.68C1520.68 80.4696 1536.21 64.9727 1555.3 64.9727C1574.39 64.9736 1589.92 80.4696 1589.92 99.5128Z" fill="#272727"/>
<path d="M1707.48 99.5128H1705.25C1705.25 81.7022 1690.72 67.2012 1672.86 67.2012C1655 67.2012 1640.48 81.7022 1640.48 99.5128H1638.24C1638.24 80.4696 1653.77 64.9727 1672.86 64.9727C1691.95 64.9736 1707.48 80.4696 1707.48 99.5128Z" fill="#272727"/>
<path d="M1825.57 99.5128H1823.34C1823.34 81.7022 1808.81 67.2012 1790.95 67.2012C1773.09 67.2012 1758.57 81.7022 1758.57 99.5128H1756.33C1756.33 80.4696 1771.86 64.9727 1790.95 64.9727C1810.04 64.9736 1825.57 80.4696 1825.57 99.5128Z" fill="#272727"/>
<path d="M1581.54 99.5134H1579.31C1579.31 86.3076 1568.54 75.5586 1555.3 75.5586C1542.06 75.5586 1531.29 86.3076 1531.29 99.5134H1529.05C1529.05 85.0751 1540.83 73.3301 1555.3 73.3301C1569.77 73.3301 1581.54 85.0751 1581.54 99.5134Z" fill="#272727"/>
<path d="M1699.11 99.5134H1696.87C1696.87 86.3076 1686.1 75.5586 1672.86 75.5586C1659.62 75.5586 1648.85 86.3076 1648.85 99.5134H1646.62C1646.62 85.0751 1658.39 73.3301 1672.86 73.3301C1687.33 73.3301 1699.11 85.0751 1699.11 99.5134Z" fill="#272727"/>
<path d="M1817.2 99.5134H1814.96C1814.96 86.3076 1804.19 75.5586 1790.95 75.5586C1777.72 75.5586 1766.95 86.3076 1766.95 99.5134H1764.71C1764.71 85.0751 1776.49 73.3301 1790.95 73.3301C1805.43 73.3301 1817.2 85.0751 1817.2 99.5134Z" fill="#272727"/>
<path d="M1573.17 99.513H1570.93C1570.93 90.9158 1563.92 83.9216 1555.3 83.9216C1546.68 83.9216 1539.67 90.9158 1539.67 99.513H1537.43C1537.43 89.6842 1545.44 81.6855 1555.3 81.6855C1565.15 81.6865 1573.17 89.6842 1573.17 99.513Z" fill="#272727"/>
<path d="M1690.73 99.513H1688.49C1688.49 90.9158 1681.48 83.9216 1672.86 83.9216C1664.24 83.9216 1657.23 90.9158 1657.23 99.513H1654.99C1654.99 89.6842 1663.01 81.6855 1672.86 81.6855C1682.72 81.6865 1690.73 89.6842 1690.73 99.513Z" fill="#272727"/>
<path d="M1808.83 99.513H1806.59C1806.59 90.9158 1799.57 83.9216 1790.95 83.9216C1782.34 83.9216 1775.32 90.9158 1775.32 99.513H1773.09C1773.09 89.6842 1781.1 81.6855 1790.95 81.6855C1800.81 81.6865 1808.83 89.6842 1808.83 99.513Z" fill="#272727"/>
<path d="M1615.04 99.513H1612.81C1612.81 67.8757 1587.01 42.1347 1555.3 42.1347C1523.59 42.1347 1497.79 67.8757 1497.79 99.513H1495.55C1495.55 66.6412 1522.35 39.9043 1555.3 39.9043C1588.24 39.9043 1615.04 66.6412 1615.04 99.513Z" fill="#272727"/>
<path d="M1732.61 99.513H1730.37C1730.37 67.8757 1704.57 42.1347 1672.86 42.1347C1641.15 42.1347 1615.35 67.8757 1615.35 99.513H1613.11C1613.11 66.6412 1639.92 39.9043 1672.86 39.9043C1705.8 39.9043 1732.61 66.6412 1732.61 99.513Z" fill="#272727"/>
<path d="M1850.7 99.513H1848.47C1848.47 67.8757 1822.66 42.1347 1790.95 42.1347C1759.24 42.1347 1733.45 67.8757 1733.45 99.513H1731.21C1731.21 66.6412 1758.01 39.9043 1790.95 39.9043C1823.9 39.9043 1850.7 66.6412 1850.7 99.513Z" fill="#272727"/>
<path d="M1606.67 99.5141H1604.43C1604.43 72.4779 1582.39 50.488 1555.3 50.488C1528.2 50.488 1506.16 72.4779 1506.16 99.5141H1503.93C1503.93 71.25 1526.97 48.252 1555.3 48.252C1583.62 48.252 1606.67 71.251 1606.67 99.5141Z" fill="#272727"/>
<path d="M1724.23 99.5141H1721.99C1721.99 72.4779 1699.95 50.488 1672.86 50.488C1645.77 50.488 1623.73 72.4779 1623.73 99.5141H1621.49C1621.49 71.25 1644.54 48.252 1672.86 48.252C1701.19 48.252 1724.23 71.251 1724.23 99.5141Z" fill="#272727"/>
<path d="M1842.32 99.5141H1840.09C1840.09 72.4779 1818.04 50.488 1790.95 50.488C1763.86 50.488 1741.82 72.4779 1741.82 99.5141H1739.58C1739.58 71.25 1762.63 48.252 1790.95 48.252C1819.28 48.252 1842.32 71.251 1842.32 99.5141Z" fill="#272727"/>
<path d="M1598.3 99.513H1596.06C1596.06 77.0882 1577.77 58.8456 1555.3 58.8456C1532.83 58.8456 1514.54 77.0892 1514.54 99.513H1512.3C1512.3 75.8613 1531.6 56.6133 1555.3 56.6133C1579.01 56.6133 1598.3 75.8613 1598.3 99.513Z" fill="#272727"/>
<path d="M1715.86 99.513H1713.62C1713.62 77.0882 1695.33 58.8456 1672.86 58.8456C1650.39 58.8456 1632.11 77.0892 1632.11 99.513H1629.87C1629.87 75.8613 1649.16 56.6133 1672.86 56.6133C1696.57 56.6133 1715.86 75.8613 1715.86 99.513Z" fill="#272727"/>
<path d="M1833.95 99.513H1831.71C1831.71 77.0882 1813.42 58.8456 1790.95 58.8456C1768.48 58.8456 1750.2 77.0892 1750.2 99.513H1747.96C1747.96 75.8613 1767.25 56.6133 1790.95 56.6133C1814.66 56.6133 1833.95 75.8613 1833.95 99.513Z" fill="#272727"/>
</g>
<defs>
<clipPath id="clip0_1911_3256">
<rect width="1819" height="99" fill="white"/>
</clipPath>
</defs>
</svg>
