<svg width="55" height="55" viewBox="0 0 55 55" fill="none" xmlns="http://www.w3.org/2000/svg">
<path d="M12.221 12.3712H12.371V12.2212V0V-0.15H12.221H0H-0.15V0V12.2212V12.3712H0H12.221ZM10.4539 10.4541H1.76707V1.7671H10.4539V10.4541Z" fill="#333333" stroke="#333333" stroke-width="0.3"/>
<path d="M22.8275 22.9747H22.9775V22.8247V10.6035V10.4535H22.8275H10.6055H10.4555V10.6035V22.8247V22.9747H10.6055H22.8275ZM21.0594 21.0576H12.3725V12.3706H21.0594V21.0576Z" fill="#333333" stroke="#333333" stroke-width="0.3"/>
<path d="M33.428 12.3712H33.578V12.2212V0V-0.15H33.428H21.207H21.057V0V12.2212V12.3712H21.207H33.428ZM31.6609 10.4541H22.9741V1.7671H31.6609V10.4541Z" fill="#333333" stroke="#333333" stroke-width="0.3"/>
<path d="M12.221 33.5812H12.371V33.4312V21.209V21.059H12.221H0H-0.15V21.209V33.4312V33.5812H0H12.221ZM10.4539 31.6631H1.76707V22.9761H10.4539V31.6631Z" fill="#333333" stroke="#333333" stroke-width="0.3"/>
<path d="M0 33.2816H-0.15V33.4316V55.0023V55.1523H0H1.61707H1.76707V55.0023V33.4316V33.2816H1.61707H0Z" fill="#333333" stroke="#333333" stroke-width="0.3"/>
<path d="M33.4297 -0.15H33.2797V0V1.6171V1.7671H33.4297H54.9999H55.1499V1.6171V0V-0.15H54.9999H33.4297Z" fill="#333333" stroke="#333333" stroke-width="0.3"/>
</svg>
